<?xml version="1.0" encoding="UTF-8" standalone="no"?>
<!DOCTYPE svg PUBLIC "-//W3C//DTD SVG 1.1//EN"
 "http://www.w3.org/Graphics/SVG/1.1/DTD/svg11.dtd">
<!-- Generated by graphviz version 2.38.0 (20140413.2041)
 -->
<!-- Title: %75 Pages: 1 -->
<svg width="103pt" height="260pt"
 viewBox="0.00 0.00 102.89 260.00" xmlns="http://www.w3.org/2000/svg" xmlns:xlink="http://www.w3.org/1999/xlink">
<g id="graph0" class="graph" transform="scale(1 1) rotate(0) translate(4 256)">
<title>%75</title>
<polygon fill="white" stroke="none" points="-4,4 -4,-256 98.8916,-256 98.8916,4 -4,4"/>
<!-- b_1 -->
<g id="node1" class="node"><title>b_1</title>
<polygon fill="none" stroke="#a4d3ee" points="80.9458,-108 13.9458,-108 13.9458,-72 80.9458,-72 80.9458,-108"/>
<text text-anchor="middle" x="47.4458" y="-86.3" font-family="Times New Roman,serif" font-size="14.00">Dataflow</text>
</g>
<!-- e_2 -->
<g id="node3" class="node"><title>e_2</title>
<ellipse fill="none" stroke="#ffec8b" cx="47.4458" cy="-18" rx="40.0939" ry="18"/>
<text text-anchor="middle" x="47.4458" y="-14.3" font-family="Times New Roman,serif" font-size="14.00">STORE</text>
</g>
<!-- b_1&#45;&gt;e_2 -->
<g id="edge3" class="edge"><title>b_1&#45;&gt;e_2</title>
<path fill="none" stroke="black" d="M47.4458,-71.6966C47.4458,-63.9827 47.4458,-54.7125 47.4458,-46.1124"/>
<polygon fill="black" stroke="black" points="50.9459,-46.1043 47.4458,-36.1043 43.9459,-46.1044 50.9459,-46.1043"/>
</g>
<!-- e_1 -->
<g id="node2" class="node"><title>e_1</title>
<ellipse fill="none" stroke="#ffec8b" cx="47.4458" cy="-162" rx="47.3916" ry="18"/>
<text text-anchor="middle" x="47.4458" y="-158.3" font-family="Times New Roman,serif" font-size="14.00">LOADER</text>
</g>
<!-- e_1&#45;&gt;b_1 -->
<g id="edge2" class="edge"><title>e_1&#45;&gt;b_1</title>
<path fill="none" stroke="black" d="M47.4458,-143.697C47.4458,-135.983 47.4458,-126.712 47.4458,-118.112"/>
<polygon fill="black" stroke="black" points="50.9459,-118.104 47.4458,-108.104 43.9459,-118.104 50.9459,-118.104"/>
</g>
<!-- s_1 -->
<g id="node4" class="node"><title>s_1</title>
<polygon fill="none" stroke="#90ee90" points="86.7372,-226.544 86.7372,-241.456 63.7208,-252 31.1707,-252 8.15435,-241.456 8.15435,-226.544 31.1707,-216 63.7208,-216 86.7372,-226.544"/>
<text text-anchor="middle" x="47.4458" y="-230.3" font-family="Times New Roman,serif" font-size="14.00">Source</text>
</g>
<!-- s_1&#45;&gt;e_1 -->
<g id="edge1" class="edge"><title>s_1&#45;&gt;e_1</title>
<path fill="none" stroke="cyan" d="M47.4458,-215.697C47.4458,-207.983 47.4458,-198.712 47.4458,-190.112"/>
<polygon fill="cyan" stroke="cyan" points="50.9459,-190.104 47.4458,-180.104 43.9459,-190.104 50.9459,-190.104"/>
</g>
</g>
</svg>
