<?xml version="1.0" encoding="UTF-8" standalone="no"?>
<!DOCTYPE svg PUBLIC "-//W3C//DTD SVG 1.1//EN"
 "http://www.w3.org/Graphics/SVG/1.1/DTD/svg11.dtd">
<!-- Generated by graphviz version 2.38.0 (20140413.2041)
 -->
<!-- Title: %35 Pages: 1 -->
<svg width="973pt" height="476pt"
 viewBox="0.00 0.00 972.83 476.00" xmlns="http://www.w3.org/2000/svg" xmlns:xlink="http://www.w3.org/1999/xlink">
<g id="graph0" class="graph" transform="scale(1 1) rotate(0) translate(4 472)">
<title>%35</title>
<polygon fill="white" stroke="none" points="-4,4 -4,-472 968.826,-472 968.826,4 -4,4"/>
<!-- b_52599 -->
<g id="node1" class="node"><title>b_52599</title>
<polygon fill="none" stroke="#a4d3ee" points="885.886,-180 678.886,-180 678.886,-144 885.886,-144 885.886,-180"/>
<text text-anchor="middle" x="782.386" y="-158.3" font-family="Times New Roman,serif" font-size="14.00">prod_stg_Compsych_Member_T</text>
</g>
<!-- e_17738 -->
<g id="node2" class="node"><title>e_17738</title>
<ellipse fill="none" stroke="#ffec8b" cx="852.386" cy="-90" rx="112.38" ry="18"/>
<text text-anchor="middle" x="852.386" y="-86.3" font-family="Times New Roman,serif" font-size="14.00">stg_Compsych_Member_T</text>
</g>
<!-- b_52599&#45;&gt;e_17738 -->
<g id="edge1" class="edge"><title>b_52599&#45;&gt;e_17738</title>
<path fill="none" stroke="black" d="M799.69,-143.697C808.251,-135.135 818.73,-124.656 828.082,-115.304"/>
<polygon fill="black" stroke="black" points="830.686,-117.65 835.282,-108.104 825.736,-112.701 830.686,-117.65"/>
</g>
<!-- s_58 -->
<g id="node3" class="node"><title>s_58</title>
<polygon fill="none" stroke="#90ee90" points="544.887,-298.544 544.887,-313.456 509.447,-324 459.326,-324 423.886,-313.456 423.886,-298.544 459.326,-288 509.447,-288 544.887,-298.544"/>
<text text-anchor="middle" x="484.386" y="-302.3" font-family="Times New Roman,serif" font-size="14.00">US_Derived</text>
</g>
<!-- s_58&#45;&gt;e_17738 -->
<g id="edge2" class="edge"><title>s_58&#45;&gt;e_17738</title>
<path fill="none" stroke="cyan" d="M528.428,-293.539C536.693,-291.562 545.281,-289.624 553.386,-288 655.698,-267.499 688.059,-289.621 785.386,-252 839.541,-231.067 866.882,-231.131 894.386,-180 905.827,-158.731 891.829,-133.816 876.996,-115.765"/>
<polygon fill="cyan" stroke="cyan" points="879.424,-113.224 870.211,-107.993 874.151,-117.828 879.424,-113.224"/>
</g>
<!-- e_18091 -->
<g id="node5" class="node"><title>e_18091</title>
<ellipse fill="none" stroke="#ffec8b" cx="650.386" cy="-234" rx="126.178" ry="18"/>
<text text-anchor="middle" x="650.386" y="-230.3" font-family="Times New Roman,serif" font-size="14.00">stg_compsych_sso_eligibility_t</text>
</g>
<!-- s_58&#45;&gt;e_18091 -->
<g id="edge3" class="edge"><title>s_58&#45;&gt;e_18091</title>
<path fill="none" stroke="cyan" d="M518.782,-290.496C542.971,-280.296 575.665,-266.509 602.414,-255.229"/>
<polygon fill="cyan" stroke="cyan" points="604.119,-258.309 611.974,-251.198 601.399,-251.859 604.119,-258.309"/>
</g>
<!-- e_18093 -->
<g id="node10" class="node"><title>e_18093</title>
<ellipse fill="none" stroke="#ffec8b" cx="473.386" cy="-90" rx="148.674" ry="18"/>
<text text-anchor="middle" x="473.386" y="-86.3" font-family="Times New Roman,serif" font-size="14.00">stg_compsych_sso_eligibility_temp_t</text>
</g>
<!-- s_58&#45;&gt;e_18093 -->
<g id="edge4" class="edge"><title>s_58&#45;&gt;e_18093</title>
<path fill="none" stroke="cyan" d="M483.505,-287.849C481.602,-250.832 477.097,-163.181 474.794,-118.386"/>
<polygon fill="cyan" stroke="cyan" points="478.281,-118.04 474.272,-108.232 471.29,-118.399 478.281,-118.04"/>
</g>
<!-- e_18066 -->
<g id="node11" class="node"><title>e_18066</title>
<ellipse fill="none" stroke="#ffec8b" cx="153.386" cy="-90" rx="153.273" ry="18"/>
<text text-anchor="middle" x="153.386" y="-86.3" font-family="Times New Roman,serif" font-size="14.00">full_stg_Compsych_Member_Audit_T</text>
</g>
<!-- s_58&#45;&gt;e_18066 -->
<g id="edge5" class="edge"><title>s_58&#45;&gt;e_18066</title>
<path fill="none" stroke="cyan" d="M435.195,-295.037C372.371,-280.027 263.638,-246.055 195.386,-180 177.903,-163.079 166.874,-137.443 160.529,-118.024"/>
<polygon fill="cyan" stroke="cyan" points="163.812,-116.79 157.551,-108.243 157.115,-118.829 163.812,-116.79"/>
</g>
<!-- b_54399 -->
<g id="node4" class="node"><title>b_54399</title>
<polygon fill="none" stroke="#a4d3ee" points="759.886,-324 562.886,-324 562.886,-288 759.886,-288 759.886,-324"/>
<text text-anchor="middle" x="661.386" y="-302.3" font-family="Times New Roman,serif" font-size="14.00">init_stg_Compsych_Member_T</text>
</g>
<!-- b_54399&#45;&gt;e_18091 -->
<g id="edge6" class="edge"><title>b_54399&#45;&gt;e_18091</title>
<path fill="none" stroke="black" d="M658.667,-287.697C657.455,-279.983 655.998,-270.712 654.647,-262.112"/>
<polygon fill="black" stroke="black" points="658.084,-261.44 653.074,-252.104 651.169,-262.526 658.084,-261.44"/>
</g>
<!-- e_18091&#45;&gt;b_52599 -->
<g id="edge8" class="edge"><title>e_18091&#45;&gt;b_52599</title>
<path fill="none" stroke="black" d="M681.669,-216.411C699.439,-206.987 721.903,-195.075 741.104,-184.892"/>
<polygon fill="black" stroke="black" points="742.755,-187.978 749.95,-180.201 739.476,-181.794 742.755,-187.978"/>
</g>
<!-- b_52268 -->
<g id="node9" class="node"><title>b_52268</title>
<polygon fill="none" stroke="#a4d3ee" points="461.886,-180 204.886,-180 204.886,-144 461.886,-144 461.886,-180"/>
<text text-anchor="middle" x="333.386" y="-158.3" font-family="Times New Roman,serif" font-size="14.00">prod_stg_compsych_sso_eligibility_cdc_t</text>
</g>
<!-- e_18091&#45;&gt;b_52268 -->
<g id="edge7" class="edge"><title>e_18091&#45;&gt;b_52268</title>
<path fill="none" stroke="black" d="M585.088,-218.581C537.497,-208.072 472.52,-193.723 420.506,-182.238"/>
<polygon fill="black" stroke="black" points="421.138,-178.793 410.619,-180.054 419.629,-185.628 421.138,-178.793"/>
</g>
<!-- e_18266 -->
<g id="node6" class="node"><title>e_18266</title>
<ellipse fill="none" stroke="#ffec8b" cx="531.386" cy="-378" rx="110.48" ry="18"/>
<text text-anchor="middle" x="531.386" y="-374.3" font-family="Times New Roman,serif" font-size="14.00">compsych_sso_eligibility_t</text>
</g>
<!-- e_18266&#45;&gt;b_54399 -->
<g id="edge9" class="edge"><title>e_18266&#45;&gt;b_54399</title>
<path fill="none" stroke="black" d="M561.866,-360.588C579.408,-351.142 601.676,-339.152 620.698,-328.909"/>
<polygon fill="black" stroke="black" points="622.595,-331.863 629.741,-324.04 619.277,-325.699 622.595,-331.863"/>
</g>
<!-- e_18266&#45;&gt;b_52268 -->
<g id="edge10" class="edge"><title>e_18266&#45;&gt;b_52268</title>
<path fill="none" stroke="black" d="M479.371,-362.087C457.27,-353.713 432.484,-341.374 414.386,-324 375.112,-286.296 351.806,-225.468 340.905,-190.368"/>
<polygon fill="black" stroke="black" points="344.131,-188.937 337.917,-180.355 337.423,-190.939 344.131,-188.937"/>
</g>
<!-- s_328 -->
<g id="node7" class="node"><title>s_328</title>
<polygon fill="none" stroke="#90ee90" points="603.806,-442.544 603.806,-457.456 561.384,-468 501.389,-468 458.967,-457.456 458.967,-442.544 501.389,-432 561.384,-432 603.806,-442.544"/>
<text text-anchor="middle" x="531.386" y="-446.3" font-family="Times New Roman,serif" font-size="14.00">GWRRPT_PR</text>
</g>
<!-- s_328&#45;&gt;e_18266 -->
<g id="edge11" class="edge"><title>s_328&#45;&gt;e_18266</title>
<path fill="none" stroke="cyan" d="M531.386,-431.697C531.386,-423.983 531.386,-414.712 531.386,-406.112"/>
<polygon fill="cyan" stroke="cyan" points="534.886,-406.104 531.386,-396.104 527.886,-406.104 534.886,-406.104"/>
</g>
<!-- b_52612 -->
<g id="node8" class="node"><title>b_52612</title>
<polygon fill="none" stroke="#a4d3ee" points="693.386,-36 429.386,-36 429.386,-0 693.386,-0 693.386,-36"/>
<text text-anchor="middle" x="561.386" y="-14.3" font-family="Times New Roman,serif" font-size="14.00">prod_copy_stg_compsych_sso_eligibility_t</text>
</g>
<!-- b_52612&#45;&gt;e_18091 -->
<g id="edge12" class="edge"><title>b_52612&#45;&gt;e_18091</title>
<path fill="none" stroke="black" d="M594.497,-36.1451C608.184,-44.9747 622.826,-57.0529 631.386,-72 655.367,-113.873 655.749,-171.871 653.386,-205.615"/>
<polygon fill="black" stroke="black" points="649.891,-205.411 652.548,-215.667 656.866,-205.992 649.891,-205.411"/>
</g>
<!-- b_52268&#45;&gt;e_18093 -->
<g id="edge13" class="edge"><title>b_52268&#45;&gt;e_18093</title>
<path fill="none" stroke="black" d="M367.634,-143.876C386.729,-134.329 410.674,-122.356 430.949,-112.219"/>
<polygon fill="black" stroke="black" points="432.596,-115.308 439.975,-107.706 429.466,-109.047 432.596,-115.308"/>
</g>
<!-- b_52268&#45;&gt;e_18066 -->
<g id="edge14" class="edge"><title>b_52268&#45;&gt;e_18066</title>
<path fill="none" stroke="black" d="M289.353,-143.876C263.862,-133.963 231.645,-121.434 204.971,-111.061"/>
<polygon fill="black" stroke="black" points="206.006,-107.708 195.417,-107.345 203.469,-114.232 206.006,-107.708"/>
</g>
<!-- e_18093&#45;&gt;b_52612 -->
<g id="edge15" class="edge"><title>e_18093&#45;&gt;b_52612</title>
<path fill="none" stroke="black" d="M494.689,-72.055C505.848,-63.1785 519.689,-52.1686 531.865,-42.483"/>
<polygon fill="black" stroke="black" points="534.328,-44.996 539.975,-36.0316 529.97,-39.5178 534.328,-44.996"/>
</g>
</g>
</svg>
