<?xml version="1.0" encoding="UTF-8" standalone="no"?>
<!DOCTYPE svg PUBLIC "-//W3C//DTD SVG 1.1//EN"
 "http://www.w3.org/Graphics/SVG/1.1/DTD/svg11.dtd">
<!-- Generated by graphviz version 2.38.0 (20140413.2041)
 -->
<!-- Title: %3 Pages: 1 -->
<svg width="859pt" height="476pt"
 viewBox="0.00 0.00 858.77 476.00" xmlns="http://www.w3.org/2000/svg" xmlns:xlink="http://www.w3.org/1999/xlink">
<g id="graph0" class="graph" transform="scale(1 1) rotate(0) translate(4 472)">
<title>%3</title>
<polygon fill="white" stroke="none" points="-4,4 -4,-472 854.767,-472 854.767,4 -4,4"/>
<!-- source -->
<g id="node1" class="node"><title>source</title>
<polygon fill="#d4e4f7" stroke="black" points="35.87,-444.438 75.5044,-432 115.139,-444.438 115.102,-464.562 35.907,-464.562 35.87,-444.438"/>
<text text-anchor="middle" x="75.5044" y="-446.9" font-family="arial" font-size="12.00">source</text>
</g>
<!-- entity -->
<g id="node2" class="node"><title>entity</title>
<ellipse fill="#3a84d9" stroke="black" cx="75.5044" cy="-378" rx="27.1719" ry="18"/>
<text text-anchor="middle" x="75.5044" y="-374.9" font-family="arial" font-size="12.00">entity</text>
</g>
<!-- source&#45;&gt;entity -->
<g id="edge1" class="edge"><title>source&#45;&gt;entity</title>
<path fill="none" stroke="black" d="M75.5044,-431.697C75.5044,-423.983 75.5044,-414.712 75.5044,-406.112"/>
<polygon fill="black" stroke="black" points="79.0045,-406.104 75.5044,-396.104 72.0045,-406.104 79.0045,-406.104"/>
</g>
<!-- dataflow -->
<g id="node3" class="node"><title>dataflow</title>
<path fill="#e9446a" stroke="black" d="M93.5044,-324C93.5044,-324 57.5044,-324 57.5044,-324 51.5044,-324 45.5044,-318 45.5044,-312 45.5044,-312 45.5044,-300 45.5044,-300 45.5044,-294 51.5044,-288 57.5044,-288 57.5044,-288 93.5044,-288 93.5044,-288 99.5044,-288 105.504,-294 105.504,-300 105.504,-300 105.504,-312 105.504,-312 105.504,-318 99.5044,-324 93.5044,-324"/>
<text text-anchor="middle" x="75.5044" y="-302.9" font-family="arial" font-size="12.00">dataflow</text>
</g>
<!-- entity&#45;&gt;dataflow -->
<g id="edge2" class="edge"><title>entity&#45;&gt;dataflow</title>
<path fill="none" stroke="black" d="M75.5044,-359.697C75.5044,-351.983 75.5044,-342.712 75.5044,-334.112"/>
<polygon fill="black" stroke="black" points="79.0045,-334.104 75.5044,-324.104 72.0045,-334.104 79.0045,-334.104"/>
</g>
<!-- target -->
<g id="node4" class="node"><title>target</title>
<ellipse fill="#dac344" stroke="black" cx="75.5044" cy="-234" rx="28.8653" ry="18"/>
<text text-anchor="middle" x="75.5044" y="-230.9" font-family="arial" font-size="12.00">target</text>
</g>
<!-- dataflow&#45;&gt;target -->
<g id="edge3" class="edge"><title>dataflow&#45;&gt;target</title>
<path fill="none" stroke="black" d="M75.5044,-287.697C75.5044,-279.983 75.5044,-270.712 75.5044,-262.112"/>
<polygon fill="black" stroke="black" points="79.0045,-262.104 75.5044,-252.104 72.0045,-262.104 79.0045,-262.104"/>
</g>
<!-- b_52599 -->
<g id="node5" class="node"><title>b_52599</title>
<path fill="#e9446a" stroke="black" d="M774.004,-180C774.004,-180 609.004,-180 609.004,-180 603.004,-180 597.004,-174 597.004,-168 597.004,-168 597.004,-156 597.004,-156 597.004,-150 603.004,-144 609.004,-144 609.004,-144 774.004,-144 774.004,-144 780.004,-144 786.004,-150 786.004,-156 786.004,-156 786.004,-168 786.004,-168 786.004,-174 780.004,-180 774.004,-180"/>
<text text-anchor="middle" x="691.504" y="-158.9" font-family="arial" font-size="12.00">prod_stg_Compsych_Member_T</text>
</g>
<!-- e_17738 -->
<g id="node6" class="node"><title>e_17738</title>
<ellipse fill="#dac344" stroke="black" cx="753.504" cy="-90" rx="97.0261" ry="18"/>
<text text-anchor="middle" x="753.504" y="-86.9" font-family="arial" font-size="12.00">stg_Compsych_Member_T</text>
</g>
<!-- b_52599&#45;&gt;e_17738 -->
<g id="edge4" class="edge"><title>b_52599&#45;&gt;e_17738</title>
<path fill="none" stroke="#347b98" d="M706.83,-143.697C714.263,-135.305 723.328,-125.07 731.484,-115.861"/>
<polygon fill="#347b98" stroke="#347b98" points="734.345,-117.911 738.355,-108.104 729.104,-113.27 734.345,-117.911"/>
</g>
<!-- s_58 -->
<g id="node7" class="node"><title>s_58</title>
<polygon fill="#d4e4f7" stroke="black" points="354.737,-300.438 416.504,-288 478.272,-300.438 478.214,-320.562 354.795,-320.562 354.737,-300.438"/>
<text text-anchor="middle" x="416.504" y="-302.9" font-family="arial" font-size="12.00">US_Derived</text>
</g>
<!-- s_58&#45;&gt;e_17738 -->
<g id="edge5" class="edge"><title>s_58&#45;&gt;e_17738</title>
<path fill="none" stroke="#092834" d="M454.367,-295.512C465.055,-292.949 476.712,-290.262 487.504,-288 575.902,-269.477 603.805,-285.936 687.504,-252 740.624,-230.463 767.567,-230.595 794.504,-180 805.806,-158.774 792.127,-133.854 777.608,-115.791"/>
<polygon fill="#092834" stroke="#092834" points="780.121,-113.344 770.965,-108.012 774.798,-117.89 780.121,-113.344"/>
</g>
<!-- e_18091 -->
<g id="node9" class="node"><title>e_18091</title>
<ellipse fill="#dac344" stroke="black" cx="568.504" cy="-234" rx="110.38" ry="18"/>
<text text-anchor="middle" x="568.504" y="-230.9" font-family="arial" font-size="12.00">stg_compsych_sso_eligibility_t</text>
</g>
<!-- s_58&#45;&gt;e_18091 -->
<g id="edge6" class="edge"><title>s_58&#45;&gt;e_18091</title>
<path fill="none" stroke="#092834" d="M442.289,-293.125C464.716,-282.797 497.702,-267.606 524.329,-255.344"/>
<polygon fill="#092834" stroke="#092834" points="525.835,-258.504 533.454,-251.142 522.906,-252.146 525.835,-258.504"/>
</g>
<!-- e_18093 -->
<g id="node14" class="node"><title>e_18093</title>
<ellipse fill="#dac344" stroke="black" cx="409.504" cy="-90" rx="130.509" ry="18"/>
<text text-anchor="middle" x="409.504" y="-86.9" font-family="arial" font-size="12.00">stg_compsych_sso_eligibility_temp_t</text>
</g>
<!-- s_58&#45;&gt;e_18093 -->
<g id="edge7" class="edge"><title>s_58&#45;&gt;e_18093</title>
<path fill="none" stroke="#092834" d="M415.943,-287.849C414.733,-250.832 411.866,-163.181 410.4,-118.386"/>
<polygon fill="#092834" stroke="#092834" points="413.893,-118.113 410.068,-108.232 406.897,-118.342 413.893,-118.113"/>
</g>
<!-- e_18066 -->
<g id="node15" class="node"><title>e_18066</title>
<ellipse fill="#dac344" stroke="black" cx="130.504" cy="-90" rx="130.509" ry="18"/>
<text text-anchor="middle" x="130.504" y="-86.9" font-family="arial" font-size="12.00">full_stg_Compsych_Member_Audit_T</text>
</g>
<!-- s_58&#45;&gt;e_18066 -->
<g id="edge8" class="edge"><title>s_58&#45;&gt;e_18066</title>
<path fill="none" stroke="#092834" d="M374.606,-296.324C316.753,-282.148 213.048,-248.457 155.504,-180 140.866,-162.585 134.774,-137.169 132.251,-117.951"/>
<polygon fill="#092834" stroke="#092834" points="135.731,-117.573 131.186,-108.003 128.771,-118.319 135.731,-117.573"/>
</g>
<!-- b_54399 -->
<g id="node8" class="node"><title>b_54399</title>
<path fill="#e9446a" stroke="black" d="M664.504,-324C664.504,-324 508.504,-324 508.504,-324 502.504,-324 496.504,-318 496.504,-312 496.504,-312 496.504,-300 496.504,-300 496.504,-294 502.504,-288 508.504,-288 508.504,-288 664.504,-288 664.504,-288 670.504,-288 676.504,-294 676.504,-300 676.504,-300 676.504,-312 676.504,-312 676.504,-318 670.504,-324 664.504,-324"/>
<text text-anchor="middle" x="586.504" y="-302.9" font-family="arial" font-size="12.00">init_stg_Compsych_Member_T</text>
</g>
<!-- b_54399&#45;&gt;e_18091 -->
<g id="edge9" class="edge"><title>b_54399&#45;&gt;e_18091</title>
<path fill="none" stroke="#347b98" d="M582.055,-287.697C580.05,-279.898 577.635,-270.509 575.403,-261.829"/>
<polygon fill="#347b98" stroke="#347b98" points="578.783,-260.918 572.903,-252.104 572.003,-262.661 578.783,-260.918"/>
</g>
<!-- e_18091&#45;&gt;b_52599 -->
<g id="edge11" class="edge"><title>e_18091&#45;&gt;b_52599</title>
<path fill="none" stroke="#66b032" d="M597.342,-216.588C613.789,-207.228 634.626,-195.37 652.515,-185.189"/>
<polygon fill="#66b032" stroke="#66b032" points="654.603,-188.028 661.563,-180.04 651.14,-181.944 654.603,-188.028"/>
</g>
<!-- b_52268 -->
<g id="node13" class="node"><title>b_52268</title>
<path fill="#e9446a" stroke="black" d="M388.004,-180C388.004,-180 177.004,-180 177.004,-180 171.004,-180 165.004,-174 165.004,-168 165.004,-168 165.004,-156 165.004,-156 165.004,-150 171.004,-144 177.004,-144 177.004,-144 388.004,-144 388.004,-144 394.004,-144 400.004,-150 400.004,-156 400.004,-156 400.004,-168 400.004,-168 400.004,-174 394.004,-180 388.004,-180"/>
<text text-anchor="middle" x="282.504" y="-158.9" font-family="arial" font-size="12.00">prod_stg_compsych_sso_eligibility_cdc_t</text>
</g>
<!-- e_18091&#45;&gt;b_52268 -->
<g id="edge10" class="edge"><title>e_18091&#45;&gt;b_52268</title>
<path fill="none" stroke="#66b032" d="M509.938,-218.666C467.218,-208.21 408.835,-193.92 361.918,-182.437"/>
<polygon fill="#66b032" stroke="#66b032" points="362.636,-179.009 352.091,-180.032 360.972,-185.809 362.636,-179.009"/>
</g>
<!-- e_18266 -->
<g id="node10" class="node"><title>e_18266</title>
<ellipse fill="#3a84d9" stroke="black" cx="462.504" cy="-378" rx="96.0632" ry="18"/>
<text text-anchor="middle" x="462.504" y="-374.9" font-family="arial" font-size="12.00">compsych_sso_eligibility_t</text>
</g>
<!-- e_18266&#45;&gt;b_54399 -->
<g id="edge12" class="edge"><title>e_18266&#45;&gt;b_54399</title>
<path fill="none" stroke="#66b032" d="M491.264,-360.765C507.836,-351.41 528.905,-339.516 547.012,-329.294"/>
<polygon fill="#66b032" stroke="#66b032" points="549.183,-332.088 556.171,-324.124 545.742,-325.992 549.183,-332.088"/>
</g>
<!-- e_18266&#45;&gt;b_52268 -->
<g id="edge13" class="edge"><title>e_18266&#45;&gt;b_52268</title>
<path fill="none" stroke="#66b032" d="M409.709,-362.863C387.459,-354.636 362.773,-342.197 345.504,-324 309.554,-286.116 293.369,-225.353 286.689,-190.313"/>
<polygon fill="#66b032" stroke="#66b032" points="290.109,-189.55 284.91,-180.318 283.217,-190.777 290.109,-189.55"/>
</g>
<!-- s_328 -->
<g id="node11" class="node"><title>s_328</title>
<polygon fill="#d4e4f7" stroke="black" points="392.497,-444.438 462.504,-432 532.511,-444.438 532.446,-464.562 392.563,-464.562 392.497,-444.438"/>
<text text-anchor="middle" x="462.504" y="-446.9" font-family="arial" font-size="12.00">GWRRPT_PR</text>
</g>
<!-- s_328&#45;&gt;e_18266 -->
<g id="edge14" class="edge"><title>s_328&#45;&gt;e_18266</title>
<path fill="none" stroke="#092834" d="M462.504,-431.697C462.504,-423.983 462.504,-414.712 462.504,-406.112"/>
<polygon fill="#092834" stroke="#092834" points="466.005,-406.104 462.504,-396.104 459.005,-406.104 466.005,-406.104"/>
</g>
<!-- b_52612 -->
<g id="node12" class="node"><title>b_52612</title>
<path fill="#e9446a" stroke="black" d="M597.004,-36C597.004,-36 380.004,-36 380.004,-36 374.004,-36 368.004,-30 368.004,-24 368.004,-24 368.004,-12 368.004,-12 368.004,-6 374.004,-0 380.004,-0 380.004,-0 597.004,-0 597.004,-0 603.004,-0 609.004,-6 609.004,-12 609.004,-12 609.004,-24 609.004,-24 609.004,-30 603.004,-36 597.004,-36"/>
<text text-anchor="middle" x="488.504" y="-14.9" font-family="arial" font-size="12.00">prod_copy_stg_compsych_sso_eligibility_t</text>
</g>
<!-- b_52612&#45;&gt;e_18091 -->
<g id="edge15" class="edge"><title>b_52612&#45;&gt;e_18091</title>
<path fill="none" stroke="#347b98" d="M516.139,-36.0743C528.43,-45.1725 541.831,-57.49 549.504,-72 571.966,-114.471 572.92,-171.888 571.063,-205.435"/>
<polygon fill="#347b98" stroke="#347b98" points="567.542,-205.625 570.352,-215.84 574.525,-206.102 567.542,-205.625"/>
</g>
<!-- b_52268&#45;&gt;e_18093 -->
<g id="edge16" class="edge"><title>b_52268&#45;&gt;e_18093</title>
<path fill="none" stroke="#347b98" d="M313.572,-143.876C330.581,-134.501 351.834,-122.787 370.01,-112.769"/>
<polygon fill="#347b98" stroke="#347b98" points="372.127,-115.598 379.196,-107.706 368.748,-109.468 372.127,-115.598"/>
</g>
<!-- b_52268&#45;&gt;e_18066 -->
<g id="edge17" class="edge"><title>b_52268&#45;&gt;e_18066</title>
<path fill="none" stroke="#347b98" d="M245.321,-143.876C224.173,-134.137 197.543,-121.873 175.255,-111.609"/>
<polygon fill="#347b98" stroke="#347b98" points="176.544,-108.349 165.997,-107.345 173.616,-114.707 176.544,-108.349"/>
</g>
<!-- e_18093&#45;&gt;b_52612 -->
<g id="edge18" class="edge"><title>e_18093&#45;&gt;b_52612</title>
<path fill="none" stroke="#66b032" d="M428.628,-72.055C438.549,-63.2639 450.833,-52.3801 461.687,-42.7627"/>
<polygon fill="#66b032" stroke="#66b032" points="464.12,-45.2831 469.283,-36.0316 459.477,-40.0439 464.12,-45.2831"/>
</g>
</g>
</svg>
